<?xml version="1.0"?>
<svg xmlns:rdf="http://www.w3.org/1999/02/22-rdf-syntax-ns#" xmlns="http://www.w3.org/2000/svg" xmlns:cc="http://web.resource.org/cc/" xmlns:xlink="http://www.w3.org/1999/xlink" xmlns:dc="http://purl.org/dc/elements/1.1/" xmlns:svg="http://www.w3.org/2000/svg" id="Layer_1" version="1.1" xml:space="preserve" viewBox="0 0 352.515 178.827" enable-background="new 0 0 352.515 178.827" y="0px" x="0px">
<g id="g267" transform="translate(0 -.0000052257)" fill="#1072BA">
	<path id="path269" d="m52.695 46.801s35.736 35.738 36.099 36.22c0.364 0.486 5.937-1.329 5.937-1.329l0.243-2.302 6.176 1.453 3.876-0.605 0.486-10.175-15.999-17.813c0.002 0-25.801-7.631-36.826-5.449z"/>
	<path id="path271" d="m86.251 32.021l20.472 30.646s6.783-19.261 7.51-19.5c0.73-0.242-16.834-12.478-27.979-11.146z"/>
	<path id="path273" d="m109.75 9.247c-0.384 0.005 19.382 32.952 19.382 32.952l6.784 0.968 7.025-12.841s-24.34-21.2-33.19-21.079z"/>
	<path id="path275" d="m222.41 57.097s39.856 33.677 39.611 39.369l2.424-0.604s2.785-35.978-3.878-46.64c0.01 0-20.46-9.205-38.15 7.875z"/>
	<path id="path277" d="m276.8 73.329l25.801 25.076s4.482-0.605 4.36-1.576l-0.121-0.968 11.628 0.363 4.968 6.785s3.997 0 4.118 0.848c0.121 0.845 0.243 0.36 0.243 0.36s7.026-29.315 5.571-30.891-27.013-1.815-35.372 6.907-15.02-7.875-21.2-6.907z"/>
	<path id="path279" d="m115.08 44.014l57.299 46.76s3.755 2.542 4.724-5.209 14.779 3.268 15.628 3.878l7.753 9.325s-8.842-16.354-13.445-21.924c-4.605-5.573-26.288-19.987-31.376-23.14-5.087-3.147-15.869-12.959-40.944-9.691"/>
	<path id="path281" d="m136.52 43.527l3.633 0.727s6.904-11.383 8.117-12.475c1.211-1.089 14.658 9.931 15.143 10.78 0.484 0.847 11.268 11.994 12.841 13.812 1.574 1.816 26.287 41.914 26.529 42.882s-9.206-21.321-13.083-28.589c-3.875-7.271-15.747-21.321-16.474-22.29-0.727-0.968-23.987-23.745-26.529-22.534-2.54 1.216-9.81 16.235-10.18 17.687z"/>
	<path id="path283" d="m179.61 38.767s25.196 22.529 28.022 27.295c2.827 4.764-16.797-33.594-19.704-34.079-2.91-0.487-8.4 5.974-8.32 6.784z"/>
	<path id="path285" d="m171.21 0s53.142 50.069 52.009 100.47l-0.161 3.23 1.776 0.646s1.453-20.192 0.808-26.166c-0.647-5.977-5.655-22.776-6.946-25.361-1.291-2.582-10.337-22.448-15.668-28.75-5.33-6.307-23.42-23.75-31.82-24.073z"/>
	<path id="path287" d="m169.44 0.484l4.198 3.23s-10.335 20.673-9.528 24.067l-4.199-1.453c-0.01 0.001 4.52-20.029 9.53-25.844z"/>
	<path id="path289" d="m176.14 9.734l3.391 3.392s-8.238 16.958-8.479 18.048l-2.907-1.694c0-0.001 6.42-18.657 8-19.746z"/>
	<path id="path291" d="m110.24 81.083s4.603 5.815 6.178 6.542 36.707-2.666 37.675-3.152c0.968-0.481-12.842-5.936-14.781-6.783-1.937-0.847-11.023-1.574-12.598-3.755-1.574-2.179-1.695 0.124-1.695 0.124s-13.82 7.267-14.78 7.024z"/>
	<path id="path293" d="m116.54 48.619s6.905 3.997 7.875 5.331c0.968 1.332 0.968 6.663 0.968 6.663s-12.479 14.291-13.447 17.08c-0.968 2.787-4.846 3.031-4.846 3.031s0.85-21.811 9.45-32.105z"/>
	<path id="path295" d="m104.91 81.205c0.506 0.083 4.603 6.905 5.085 8.115 0.486 1.212-23.743-1.695-24.589-2.179-0.855-0.487 9.442-7.633 19.499-5.936z"/>
	<path id="path297" d="m55.482 51.405s31.012 31.981 31.133 32.586c0.122 0.605-4.604 1.574-4.604 1.574s0-5.208-1.333-6.057c-1.331-0.848-17.686-8.479-18.655-8.239-0.968 0.245-6.541-19.864-6.541-19.864z"/>
	<path id="path299" d="m61.176 72.724s16.112 5.694 16.839 7.028c0.727 1.332 1.211 3.392 1.211 3.392s-33.919 2.058-34.524-2.547 9.207-3.026 10.541-2.663c1.329 0.363 5.933-5.21 5.933-5.21z"/>
	<path id="path301" d="m225.8 102.64l0.12 1.573s35.372-2.542 36.22-3.752c0.848-1.213-4.784-9.812-4.784-9.812l-9.993 5.329s-13.265-6.723-14.599-5.997c-1.331 0.727-7.025 12.175-6.964 12.478"/>
	<path id="path303" d="m89.038 95.863s61.296 7.51 63.356 6.055l0.121 3.392s-61.419-3.755-63.721-6.055l0.249-3.392z"/>
	<path id="path305" d="m82.979 103.98s55.846 8.723 69.414 7.268l0.121 3.028s-69.171-4.6-69.776-7.51l0.245-2.79z"/>
	<path id="path307" d="m76.682 114.52c-0.195-0.391-3.514 3.146-3.514 3.146s47.605 10.342 79.226 9.938c0.121-0.002 0.242-0.002 0.362-0.005l0.122-4.483c0.01 0-74.493-5.21-76.188-8.6z"/>
	<path id="path309" d="m47.668 87.564l0.061 2.242h-2.544s3.511 3.147 25.196 4.968l-0.122-3.334c0.002 0-21.984-0.968-22.591-3.876z"/>
	<path id="path311" d="m293.52 162.25s-4.238 3.876-3.755 5.087c0.484 1.21 6.179 1.092 6.179 1.092l0.727 2.421 4.358 2.06 4.485-4.968s-1.697-6.057-4.121-6.541c-2.43-0.49-7.64 0-7.88 0.85z"/>
	<path id="path313" d="m203.03 166.12s91.582 7.873 92.065 7.749c0.484-0.118 0.242 2.666 0.242 2.666s-91.46-5.45-92.31-10.42z"/>
	<path id="path315" d="m296.31 173.03l0.728-1.211 3.271 1.695s-2.544 3.028-3.271 2.786c-0.73-0.25-0.73-3.28-0.73-3.28z"/>
	<path id="path317" d="m288.55 152.68l-3.755-0.242 2.061-6.179-0.849 0.121-2.422 5.815-6.541-0.365-0.969-1.329-4.12-0.366v-5.086l-0.605-0.121-0.363 4.724-10.78-0.361-8.723-0.486-0.12-3.392-14.781-1.573 0.124-2.545-0.729-0.486-0.605-7.268-0.848-0.242v8.235l-8.601-0.362 0.12-10.176-1.937-0.121 0.121 5.937-2.666-0.121 0.121-4.966-1.815-0.123-0.971 15.143s-7.146-0.484-8.6 2.303 71.229 8.478 72.321 8.238c1.089-0.244 7.268-4.12 7.268-4.12l-1.33-0.49zm-55.36-3.64h-1.331v-1.332h1.331v1.33zm3.88 0.36h-1.21v-1.211h1.21v1.21zm3.75 0.49h-1.088v-1.453h1.088v1.45zm3.64 0.36h-1.21v-1.45h1.21v1.45z"/>
	<path id="path319" d="m201.09 162.98l0.484 0.564s-1.372-0.161-1.291 0.888c0.08 1.049 0.889 0.969 1.211 1.049 0.323 0.081 0.405 0.565 0.89 1.05 0.483 0.483 0 0.242 2.988 1.777 2.988 1.533 3.956 2.502 4.44 2.179 0.486-0.322 0 0.648 0 0.648s-5.49-2.666-6.218-2.91c-0.725-0.239-2.583-0.646-2.828-0.807-0.24-0.162-0.079-1.291-0.079-1.291s-3.148 0.646-3.715-0.406c-0.565-1.047 0.728-1.775 1.373-1.856 0.66-0.08 2.52-1.05 2.76-0.88z"/>
	<path id="path321" d="m295.58 169.27l-7.268-0.61-0.727-1.452 4.845-4.844-1.693-1.697-0.243-6.421-7.025 4.239s-1.474-0.151-3.997-0.411v3.442h-1.334v-3.578c-0.845-0.089-1.775-0.185-2.784-0.29v3.019h-1.211v-3.145c-0.736-0.078-1.503-0.157-2.302-0.242v3.508h-1.092v-3.619c-0.742-0.078-1.514-0.156-2.3-0.242v3.377h-1.455v-3.528c-1.849-0.191-3.797-0.396-5.812-0.607v2.438h-1.455v-2.593c-0.562-0.058-1.125-0.115-1.695-0.176v2.769h-2.181v-2.998c-0.803-0.084-1.611-0.169-2.421-0.255v2.771h-1.091v-2.885c-0.645-0.068-1.291-0.137-1.937-0.205v2.969h-1.817v-3.16c-18.779-1.989-38.157-4.1-38.279-4.35l-0.124 2.423s-3.271 1.211-3.027 2.182l2.546 1.694-0.484 1.816s-5.815-0.484-6.543 1.21c-0.329 0.77-0.434 0.865-0.452 0.739-0.099 0.942-0.142 2.718 0.814 3.5 0 0 90.49 9.572 92.308 7.754 1.79-1.81 0.22-2.54 0.22-2.54zm-6.6-13.26c0.424 0.242 0.665 1.149 0.665 1.149l-0.058 5.876-1.212 1.21-0.061-7.57c0.12-0.31 0.67-0.67 0.67-0.67zm-74.08 5.99l-1.212-0.361-0.118-3.515 0.36-0.121h1.092l-0.12 4zm3.27 0.37h-1.333v-4.36h1.333v4.36zm0.37-6.42l-1.455-0.118 0.122-3.273h1.333v3.39zm3.02 6.66h-1.212v-3.516h1.212v3.52zm0.37-6.42l-1.331 0.124 0.12-3.758 1.332 0.365-0.12 3.27zm3.27 8.72h-1.332v-4.847h1.332v4.85zm-0.97-7.51l-0.245-4.362 1.819 0.242 0.12 4.238-1.69-0.12zm4.36 6.54h-1.212v-1.817h1.212v1.82zm0.49-8.11h-1.455v-2.303h1.455v2.3zm3.02 8.35h-1.695v-3.149h1.695v3.15zm0-7.75h-1.211v-2.544h1.211v2.54zm3.52 8.12h-1.213v-3.515h1.213v3.51zm0.48-8.24h-1.696v-2.185h1.696v2.19zm3.39 8h-1.453v-2.91h1.453v2.91zm0.37-7.03h-1.694v-2.544h1.694v2.54zm1.08 2.06h-0.725v-1.092h0.725v1.09zm2.06 5.69h-1.574v-3.028h1.574v3.03zm0.13-7.51h-1.334v-2.541h1.334v2.54zm3.51 8.12h-1.574v-3.513h1.574v3.51zm0.12-7.88h-1.576v-2.547h1.576v2.55zm3.76 7.64h-1.817v-2.908h1.817v2.91zm3.03 0.6h-1.455v-3.028h1.455v3.03zm4.23 0.12h-1.939v-2.668h1.939v2.67zm3.28 0.73h-1.453v-3.395h1.453v3.39zm1.93-10.18h1.576v3.997h-1.576v-4zm1.7 12.12h-1.696v-5.694h1.696v5.69zm3.39-1.33h-1.211v-3.755h1.211v3.76zm3.64 0.11h-1.332v-3.753h1.332v3.75zm3.75 0.25h-1.454v-3.513h1.454v3.51zm3.76 0h-1.452v-3.271h1.452v3.27zm5.57-0.79s-0.121 0.786-0.725 0.907c-0.606 0.121-0.546-0.182-0.728-0.726-0.182-0.545 0.182-2.848 0.182-2.848l1.334 0.969-0.06 1.7zm0.06-3.09l-1.089-1.031s0.061-3.028 0.061-3.331c0-0.3 0.303-1.271 0.605-1.331 0.302-0.061 0.665 1.331 0.665 1.331l-0.24 4.36zm2.3 2.06l-1.09-0.971v-6.662s0.303-1.453 0.666-1.453c0.362 0 0.545 1.332 0.545 1.332l-0.12 7.75zm-84.94-5.44c0.039-0.37 0.087-0.62 0.087-0.62s-0.11 0.47-0.09 0.62z"/>
	<path id="path323" d="m306.89 168.14s2.664 3.232 5.007 4.279c2.343 1.049 20.027 3.637 23.986 2.101 3.957-1.533 9.449 1.536 11.547 2.182 2.101 0.643 3.796 0.4 3.796 0.4l0.161 0.808s-14.777-2.502-15.91-1.773c-1.129 0.727-21.725-0.164-23.983-2.02-2.263-1.858-5.977-4.118-6.219-3.957-0.26 0.16 1.6-2.02 1.6-2.02z"/>
	<path id="path325" d="m304.38 171.37s5.651 4.116 7.508 4.36c1.857 0.242 14.295 1.651 17.889 1.694 0 0 5.13 0.482 6.017-0.242 0.888-0.726 5.41-0.08 6.54 0.323 1.13 0.401 5.41 0.727 5.41 0.727l0.081 0.564s-8.695-0.95-10.013-0.727c-1.416 0.245-6.342 0.891-7.753 0.727-0.981-0.108-17.849-0.646-19.385-2.34-1.533-1.697-7.832-2.824-7.832-2.824l1.53-2.26z"/>
	<path id="path327" d="m302.53 174.68s4.604 1.211 6.299 2.101c1.697 0.888 2.988 1.291 2.988 1.291v0.404s-8.947-1.939-9.529-1.939c-0.041 0 0.161-1.614 0.161-1.614"/>
	<path id="path329" d="m1.211 114.52s37.553 8.478 40.46 7.507c2.908-0.968 30.769 2.908 33.192 2.666s47.002 2.907 47.729 3.149c0.726 0.242 0 7.025 0 7.025s-122.11-5.34-122.59-13.34v-7.51l1.211 0.49z"/>
	<path id="path331" d="m130.35 129.78v7.757s-1.454 4.36 75.592 0l0.241-8.967s-49.42 7.27-75.83 1.21z"/>
	<polygon id="polygon333" points="241.79 127.36 242.04 134.87 352.03 130.99 352.52 123.24"/>
	<polygon id="polygon335" points="331.44 111.37 331.2 117.42 352.27 118.4 352.52 110.64"/>
	<polygon id="polygon337" points="233.8 114.76 233.56 123.97 237.43 124.69 237.43 114.76"/>
	<polygon id="polygon339" points="274.02 110.16 273.29 121.06 280.08 121.3 282.98 120.82 282.74 115.73 279.11 109.19"/>
	<polygon id="polygon341" points="287.1 113.55 290.74 113.55 290.98 121.54 287.34 121.79"/>
	<polygon id="polygon343" points="195.28 110.88 222.17 108.7 263.84 107.49 264.08 110.16 221.69 111.85 208.36 112.82 195.28 113.3"/>
	<polygon id="polygon345" points="290.74 107 317.87 107 318.11 110.16 290.98 110.4"/>
	<path id="path347" d="m44.337 95.377c0 0.968-0.969 6.783-0.969 6.783l-4.118 3.149-3.877-1.694-2.422 1.937-1.695-1.21-2.18 1.939-2.181-0.729-3.634 2.182-1.939 0.727-0.726 1.694s-9.691-0.969-14.537 0.242 57.422 6.541 63.479 4.604c6.055-1.939-6.299-3.149-6.299-3.149l-4.119-4.847-4.36 1.694-2.181-3.392-4.602 1.455-0.971-2.908-1.453-1.452 0.242-7.028h-1.458v0.005z"/>
</g>
<metadata><rdf:RDF><cc:Work><dc:format>image/svg+xml</dc:format><dc:type rdf:resource="http://purl.org/dc/dcmitype/StillImage"/><cc:license rdf:resource="http://creativecommons.org/licenses/publicdomain/"/><dc:publisher><cc:Agent rdf:about="http://openclipart.org/"><dc:title>Openclipart</dc:title></cc:Agent></dc:publisher><dc:title> sydney opera</dc:title><dc:date>2008-10-01T16:57:08</dc:date><dc:description>building, building, clip art, clipart, eiffel, eiffel, image, landmark, landmark, landmarks, landmarks, liberty, liberty, media, opera, opera, outline, outline, public domain, pyramids, pyramids, silhouette, silhouette, statue, statue, svg, sydney, sydney, taj mahal, taj mahal, tour eiffel, tour eiffel, tower, tower, </dc:description><dc:source>http://openclipart.org/detail/23246/sydney-opera-by-shokunin</dc:source><dc:creator><cc:Agent><dc:title>shokunin</dc:title></cc:Agent></dc:creator><dc:subject><rdf:Bag><rdf:li>building</rdf:li><rdf:li>clip art</rdf:li><rdf:li>clipart</rdf:li><rdf:li>eiffel</rdf:li><rdf:li>image</rdf:li><rdf:li>landmark</rdf:li><rdf:li>landmarks</rdf:li><rdf:li>liberty</rdf:li><rdf:li>media</rdf:li><rdf:li>opera</rdf:li><rdf:li>outline</rdf:li><rdf:li>public domain</rdf:li><rdf:li>pyramids</rdf:li><rdf:li>silhouette</rdf:li><rdf:li>statue</rdf:li><rdf:li>svg</rdf:li><rdf:li>sydney</rdf:li><rdf:li>taj mahal</rdf:li><rdf:li>tour eiffel</rdf:li><rdf:li>tower</rdf:li></rdf:Bag></dc:subject></cc:Work><cc:License rdf:about="http://creativecommons.org/licenses/publicdomain/"><cc:permits rdf:resource="http://creativecommons.org/ns#Reproduction"/><cc:permits rdf:resource="http://creativecommons.org/ns#Distribution"/><cc:permits rdf:resource="http://creativecommons.org/ns#DerivativeWorks"/></cc:License></rdf:RDF></metadata></svg>
